<svg width="574" height="631" viewBox="0 0 574 631" fill="none" xmlns="http://www.w3.org/2000/svg">
<path d="M279.824 442.761L117.748 489.158L2.77051 437.458L289.521 367.2L545.795 485.181L426.662 518.322L279.824 442.761Z" fill="#1CBBE9"/>
<path d="M285.365 371.176L23.5494 254.521L16.623 332.733L279.824 449.389L552.721 383.107L559.647 298.267L285.365 371.176Z" fill="#477DF2"/>
<path d="M0 518.321L4.1558 437.458L265.971 552.788L541.639 485.181L538.868 560.742L260.43 631L0 518.321Z" fill="#3CABCB"/>
<path d="M295.062 261.149L134.371 306.221L23.5498 253.195L325.538 188.24L559.648 299.592L441.9 328.756L295.062 261.149Z" fill="#2664EB"/>
<path d="M297.832 189.565L38.7872 71.584L33.2461 152.447L293.676 265.126L569.344 198.844L573.5 117.981L297.832 189.565Z" fill="#8F87F1"/>
<path d="M308.914 80.8634L152.379 121.958L41.5576 72.9097L315.84 0L573.5 115.33L457.137 147.145L308.914 80.8634Z" fill="#5E52F2"/>
<path d="M278.438 369.851L559.647 200.17L376.792 242.59L374.021 253.195H362.939L357.398 263.8H349.087L342.16 274.405H326.922L321.381 286.336H306.143L299.217 296.941H286.75L275.668 307.546L263.2 304.895L256.274 316.826H242.421L238.265 327.431H223.027L210.56 338.036L278.438 369.851Z" fill="#5E52F2"/>
<path d="M211.946 513.019L196.708 523.624L268.742 552.788L549.951 381.781L343.546 433.481L339.39 444.086H329.694L325.538 453.366H313.07L310.3 463.971H296.447L289.521 477.227L274.283 474.576L267.357 489.158L252.119 486.506L245.192 499.763H231.34L227.184 513.019H211.946Z" fill="#2664EB"/>
</svg>
